<mxfile host="app.diagrams.net" agent="Mozilla/5.0 (Windows NT 10.0; Win64; x64) AppleWebKit/537.36 (KHTML, like Gecko) Chrome/133.0.0.0 Safari/537.36 Edg/133.0.0.0" version="26.0.14">
  <diagram name="Sida-1" id="O3aQNMsKOw8vMfohSHEY">
    <mxGraphModel dx="2911" dy="2299" grid="1" gridSize="10" guides="1" tooltips="1" connect="1" arrows="1" fold="1" page="1" pageScale="1" pageWidth="827" pageHeight="1169" math="0" shadow="0">
      <root>
        <mxCell id="0" />
        <mxCell id="1" parent="0" />
        <mxCell id="-qv5VdQHlMRKxFQB7tNi-47" style="edgeStyle=orthogonalEdgeStyle;rounded=0;orthogonalLoop=1;jettySize=auto;html=1;endArrow=open;endFill=0;" parent="1" edge="1">
          <mxGeometry relative="1" as="geometry">
            <mxPoint x="1020" y="-330" as="sourcePoint" />
            <Array as="points">
              <mxPoint x="1020" y="50" />
              <mxPoint x="650" y="50" />
              <mxPoint x="650" y="-20" />
              <mxPoint x="510" y="-20" />
              <mxPoint x="510" y="-25" />
            </Array>
            <mxPoint x="500" y="-50" as="targetPoint" />
          </mxGeometry>
        </mxCell>
        <mxCell id="-qv5VdQHlMRKxFQB7tNi-52" style="edgeStyle=orthogonalEdgeStyle;rounded=0;orthogonalLoop=1;jettySize=auto;html=1;entryX=0.5;entryY=0;entryDx=0;entryDy=0;endArrow=open;endFill=0;dashed=1;" parent="1" target="-qv5VdQHlMRKxFQB7tNi-16" edge="1">
          <mxGeometry relative="1" as="geometry">
            <mxPoint x="965" y="-330" as="sourcePoint" />
            <Array as="points">
              <mxPoint x="960" y="-330" />
              <mxPoint x="960" y="60" />
              <mxPoint x="35" y="60" />
            </Array>
          </mxGeometry>
        </mxCell>
        <mxCell id="-qv5VdQHlMRKxFQB7tNi-53" style="edgeStyle=orthogonalEdgeStyle;rounded=0;orthogonalLoop=1;jettySize=auto;html=1;exitX=0.75;exitY=1;exitDx=0;exitDy=0;entryX=1;entryY=0.5;entryDx=0;entryDy=0;endArrow=open;endFill=0;" parent="1" source="-qv5VdQHlMRKxFQB7tNi-2" target="-qv5VdQHlMRKxFQB7tNi-22" edge="1">
          <mxGeometry relative="1" as="geometry" />
        </mxCell>
        <mxCell id="-qv5VdQHlMRKxFQB7tNi-57" style="edgeStyle=orthogonalEdgeStyle;rounded=0;orthogonalLoop=1;jettySize=auto;html=1;exitX=0;exitY=0.75;exitDx=0;exitDy=0;entryX=1;entryY=0.5;entryDx=0;entryDy=0;dashed=1;endArrow=open;endFill=0;" parent="1" source="-qv5VdQHlMRKxFQB7tNi-2" target="-qv5VdQHlMRKxFQB7tNi-20" edge="1">
          <mxGeometry relative="1" as="geometry">
            <Array as="points">
              <mxPoint x="510" y="-353" />
              <mxPoint x="510" y="-380" />
            </Array>
          </mxGeometry>
        </mxCell>
        <mxCell id="Wj8mXEGhw6E6jay1LkoU-2" style="edgeStyle=orthogonalEdgeStyle;rounded=0;orthogonalLoop=1;jettySize=auto;html=1;exitX=0.25;exitY=1;exitDx=0;exitDy=0;entryX=1;entryY=0.25;entryDx=0;entryDy=0;endArrow=open;endFill=0;" parent="1" source="-qv5VdQHlMRKxFQB7tNi-2" target="-qv5VdQHlMRKxFQB7tNi-4" edge="1">
          <mxGeometry relative="1" as="geometry" />
        </mxCell>
        <mxCell id="-qv5VdQHlMRKxFQB7tNi-2" value="VehichleController" style="swimlane;whiteSpace=wrap;html=1;startSize=23;" parent="1" vertex="1">
          <mxGeometry x="890" y="-480" width="172.5" height="150" as="geometry" />
        </mxCell>
        <mxCell id="-qv5VdQHlMRKxFQB7tNi-58" value="&lt;div&gt;&lt;pre style=&quot;font-family: &amp;quot;JetBrains Mono&amp;quot;, monospace;&quot;&gt;&lt;span style=&quot;background-color: rgb(255, 255, 255);&quot;&gt;&lt;font style=&quot;color: rgb(0, 0, 0);&quot;&gt;TimerListener&lt;/font&gt;&lt;/span&gt;&lt;/pre&gt;&lt;/div&gt;" style="rounded=0;whiteSpace=wrap;html=1;" parent="-qv5VdQHlMRKxFQB7tNi-2" vertex="1">
          <mxGeometry x="1.25" y="20" width="170" height="30" as="geometry" />
        </mxCell>
        <mxCell id="Wj8mXEGhw6E6jay1LkoU-9" value="&lt;font style=&quot;font-size: 9px;&quot;&gt;#frame : VehichleView&lt;/font&gt;&lt;div&gt;&lt;font style=&quot;font-size: 9px;&quot;&gt;#vehichles : ArrayList&amp;lt;MotorVehichles&amp;gt;&lt;/font&gt;&lt;/div&gt;&lt;div&gt;&lt;font style=&quot;font-size: 9px;&quot;&gt;#workshops : ArrayList&amp;lt;Workshop&amp;gt;&lt;/font&gt;&lt;/div&gt;&lt;div&gt;&lt;span style=&quot;font-size: 9px; background-color: transparent; color: light-dark(rgb(0, 0, 0), rgb(255, 255, 255));&quot;&gt;&lt;br&gt;&lt;/span&gt;&lt;/div&gt;&lt;div&gt;&lt;span style=&quot;font-size: 9px; background-color: transparent; color: light-dark(rgb(0, 0, 0), rgb(255, 255, 255));&quot;&gt;actionPerformed()&lt;/span&gt;&lt;/div&gt;" style="text;html=1;align=center;verticalAlign=middle;resizable=0;points=[];autosize=1;strokeColor=none;fillColor=none;" parent="-qv5VdQHlMRKxFQB7tNi-2" vertex="1">
          <mxGeometry x="-8.75" y="50" width="180" height="90" as="geometry" />
        </mxCell>
        <mxCell id="-qv5VdQHlMRKxFQB7tNi-45" style="edgeStyle=orthogonalEdgeStyle;rounded=0;orthogonalLoop=1;jettySize=auto;html=1;exitX=1;exitY=0.75;exitDx=0;exitDy=0;entryX=0.5;entryY=0;entryDx=0;entryDy=0;endArrow=open;endFill=0;dashed=1;" parent="1" source="-qv5VdQHlMRKxFQB7tNi-4" target="-qv5VdQHlMRKxFQB7tNi-21" edge="1">
          <mxGeometry relative="1" as="geometry">
            <Array as="points">
              <mxPoint x="130" y="-275" />
              <mxPoint x="130" y="-60" />
              <mxPoint x="305" y="-60" />
            </Array>
          </mxGeometry>
        </mxCell>
        <mxCell id="-qv5VdQHlMRKxFQB7tNi-4" value="DrawP&lt;span style=&quot;background-color: transparent; color: light-dark(rgb(0, 0, 0), rgb(255, 255, 255));&quot;&gt;anel&lt;/span&gt;" style="swimlane;whiteSpace=wrap;html=1;startSize=23;" parent="1" vertex="1">
          <mxGeometry x="-210" y="-335" width="150" height="80" as="geometry" />
        </mxCell>
        <mxCell id="Wj8mXEGhw6E6jay1LkoU-16" value="&lt;div&gt;&lt;span style=&quot;background-color: transparent; color: light-dark(rgb(0, 0, 0), rgb(255, 255, 255));&quot;&gt;#worldSize : Point&lt;/span&gt;&lt;/div&gt;&lt;div&gt;&lt;span style=&quot;background-color: transparent; color: light-dark(rgb(0, 0, 0), rgb(255, 255, 255));&quot;&gt;&lt;br&gt;&lt;/span&gt;&lt;/div&gt;&lt;div&gt;&lt;span style=&quot;background-color: transparent; color: light-dark(rgb(0, 0, 0), rgb(255, 255, 255));&quot;&gt;moveit()&lt;/span&gt;&lt;/div&gt;" style="text;html=1;align=center;verticalAlign=middle;resizable=0;points=[];autosize=1;strokeColor=none;fillColor=none;" parent="-qv5VdQHlMRKxFQB7tNi-4" vertex="1">
          <mxGeometry y="20" width="120" height="60" as="geometry" />
        </mxCell>
        <mxCell id="-qv5VdQHlMRKxFQB7tNi-29" style="edgeStyle=orthogonalEdgeStyle;rounded=0;orthogonalLoop=1;jettySize=auto;html=1;exitX=0.75;exitY=0;exitDx=0;exitDy=0;endArrow=block;endFill=0;" parent="1" source="-qv5VdQHlMRKxFQB7tNi-5" edge="1">
          <mxGeometry relative="1" as="geometry">
            <mxPoint x="400" y="20" as="targetPoint" />
          </mxGeometry>
        </mxCell>
        <mxCell id="-qv5VdQHlMRKxFQB7tNi-5" value="Car" style="swimlane;whiteSpace=wrap;html=1;" parent="1" vertex="1">
          <mxGeometry x="130" y="80" width="150" height="80" as="geometry" />
        </mxCell>
        <mxCell id="-qv5VdQHlMRKxFQB7tNi-13" value="Direction&lt;div&gt;&lt;span style=&quot;font-weight: 400; text-wrap-mode: nowrap;&quot;&gt;&amp;lt;&amp;lt;Enum&amp;gt;&amp;gt;&lt;/span&gt;&lt;/div&gt;" style="swimlane;whiteSpace=wrap;html=1;" parent="1" vertex="1">
          <mxGeometry x="210" y="-290" width="160" height="90" as="geometry" />
        </mxCell>
        <mxCell id="rI27XSCHGnwgt4RzRacL-2" value="&lt;font style=&quot;font-size: 10px;&quot;&gt;NORTH&lt;/font&gt;&lt;div&gt;&lt;font style=&quot;font-size: 10px;&quot;&gt;WEST&lt;br&gt;SOUTH&lt;br&gt;EAST&lt;/font&gt;&lt;/div&gt;" style="text;html=1;align=center;verticalAlign=middle;resizable=0;points=[];autosize=1;strokeColor=none;fillColor=none;" vertex="1" parent="-qv5VdQHlMRKxFQB7tNi-13">
          <mxGeometry x="25" y="20" width="60" height="70" as="geometry" />
        </mxCell>
        <mxCell id="-qv5VdQHlMRKxFQB7tNi-36" style="edgeStyle=orthogonalEdgeStyle;rounded=0;orthogonalLoop=1;jettySize=auto;html=1;curved=0;endArrow=open;endFill=0;" parent="1" source="-qv5VdQHlMRKxFQB7tNi-14" edge="1">
          <mxGeometry relative="1" as="geometry">
            <mxPoint x="280" y="-210" as="targetPoint" />
          </mxGeometry>
        </mxCell>
        <mxCell id="-qv5VdQHlMRKxFQB7tNi-43" style="edgeStyle=orthogonalEdgeStyle;rounded=0;orthogonalLoop=1;jettySize=auto;html=1;exitX=0.75;exitY=0;exitDx=0;exitDy=0;entryX=0.5;entryY=1;entryDx=0;entryDy=0;endArrow=block;endFill=0;dashed=1;" parent="1" source="-qv5VdQHlMRKxFQB7tNi-14" target="-qv5VdQHlMRKxFQB7tNi-15" edge="1">
          <mxGeometry relative="1" as="geometry">
            <Array as="points">
              <mxPoint x="460" y="-180" />
              <mxPoint x="460" y="-190" />
              <mxPoint x="520" y="-190" />
              <mxPoint x="520" y="-180" />
              <mxPoint x="535" y="-180" />
            </Array>
          </mxGeometry>
        </mxCell>
        <mxCell id="-qv5VdQHlMRKxFQB7tNi-14" value="&lt;font style=&quot;font-size: 11px;&quot;&gt;MotorVehichle&lt;/font&gt;&lt;div&gt;&lt;font style=&quot;font-size: 11px;&quot;&gt;&lt;i&gt;(abstract)&lt;/i&gt;&lt;/font&gt;&lt;/div&gt;" style="swimlane;whiteSpace=wrap;html=1;" parent="1" vertex="1">
          <mxGeometry x="350" y="-180" width="150" height="195" as="geometry" />
        </mxCell>
        <mxCell id="-qv5VdQHlMRKxFQB7tNi-26" value="&lt;font style=&quot;font-size: 10px;&quot;&gt;GetCoordinates()&lt;/font&gt;&lt;div&gt;&lt;font style=&quot;font-size: 10px;&quot;&gt;StopEngine()&lt;/font&gt;&lt;/div&gt;&lt;div&gt;&lt;font style=&quot;font-size: 10px;&quot;&gt;Start Engine()&lt;/font&gt;&lt;/div&gt;&lt;div&gt;&lt;font style=&quot;font-size: 10px;&quot;&gt;Gas()&lt;/font&gt;&lt;/div&gt;&lt;div&gt;&lt;font style=&quot;font-size: 10px;&quot;&gt;Brake()&lt;/font&gt;&lt;/div&gt;&lt;div&gt;&lt;font style=&quot;font-size: 10px;&quot;&gt;InvertDirection()&lt;/font&gt;&lt;/div&gt;&lt;div&gt;&lt;font style=&quot;font-size: 10px;&quot;&gt;move()&lt;/font&gt;&lt;/div&gt;&lt;div&gt;&lt;font style=&quot;font-size: 10px;&quot;&gt;turnLeft()&lt;/font&gt;&lt;/div&gt;&lt;div&gt;&lt;font style=&quot;font-size: 10px;&quot;&gt;turnRight()&lt;/font&gt;&lt;/div&gt;" style="text;html=1;align=center;verticalAlign=middle;resizable=0;points=[];autosize=1;strokeColor=none;fillColor=none;" parent="-qv5VdQHlMRKxFQB7tNi-14" vertex="1">
          <mxGeometry x="25" y="55" width="100" height="140" as="geometry" />
        </mxCell>
        <mxCell id="Wj8mXEGhw6E6jay1LkoU-3" value="xAndY&lt;div&gt;direction&lt;/div&gt;" style="rounded=0;whiteSpace=wrap;html=1;" parent="-qv5VdQHlMRKxFQB7tNi-14" vertex="1">
          <mxGeometry y="30" width="150" height="30" as="geometry" />
        </mxCell>
        <mxCell id="-qv5VdQHlMRKxFQB7tNi-15" value="Movable&lt;div&gt;&lt;span style=&quot;font-weight: 400; text-wrap-mode: nowrap;&quot;&gt;&amp;lt;&amp;lt;Interface&amp;gt;&amp;gt;&lt;/span&gt;&lt;/div&gt;" style="swimlane;whiteSpace=wrap;html=1;startSize=23;" parent="1" vertex="1">
          <mxGeometry x="460" y="-290" width="150" height="90" as="geometry" />
        </mxCell>
        <mxCell id="rI27XSCHGnwgt4RzRacL-1" value="move()&lt;div&gt;turnLeft()&lt;/div&gt;&lt;div&gt;turnRight()&lt;/div&gt;" style="text;html=1;align=center;verticalAlign=middle;resizable=0;points=[];autosize=1;strokeColor=none;fillColor=none;" vertex="1" parent="-qv5VdQHlMRKxFQB7tNi-15">
          <mxGeometry y="20" width="80" height="60" as="geometry" />
        </mxCell>
        <mxCell id="-qv5VdQHlMRKxFQB7tNi-31" style="edgeStyle=orthogonalEdgeStyle;rounded=0;orthogonalLoop=1;jettySize=auto;html=1;exitX=0.75;exitY=0;exitDx=0;exitDy=0;endArrow=block;endFill=0;" parent="1" source="-qv5VdQHlMRKxFQB7tNi-16" edge="1">
          <mxGeometry relative="1" as="geometry">
            <mxPoint x="160" y="160" as="targetPoint" />
          </mxGeometry>
        </mxCell>
        <mxCell id="-qv5VdQHlMRKxFQB7tNi-16" value="Saab95" style="swimlane;whiteSpace=wrap;html=1;" parent="1" vertex="1">
          <mxGeometry x="-40" y="240" width="150" height="80" as="geometry" />
        </mxCell>
        <mxCell id="Wj8mXEGhw6E6jay1LkoU-4" value="SetTurboOn()&lt;div&gt;SetTurboOff()&lt;/div&gt;" style="text;html=1;align=center;verticalAlign=middle;resizable=0;points=[];autosize=1;strokeColor=none;fillColor=none;" parent="-qv5VdQHlMRKxFQB7tNi-16" vertex="1">
          <mxGeometry x="-10" y="22.5" width="100" height="40" as="geometry" />
        </mxCell>
        <mxCell id="-qv5VdQHlMRKxFQB7tNi-33" style="edgeStyle=orthogonalEdgeStyle;rounded=0;orthogonalLoop=1;jettySize=auto;html=1;exitX=0.75;exitY=0;exitDx=0;exitDy=0;entryX=0.25;entryY=1;entryDx=0;entryDy=0;endArrow=block;endFill=0;" parent="1" source="-qv5VdQHlMRKxFQB7tNi-17" target="-qv5VdQHlMRKxFQB7tNi-19" edge="1">
          <mxGeometry relative="1" as="geometry" />
        </mxCell>
        <mxCell id="-qv5VdQHlMRKxFQB7tNi-17" value="Scania" style="swimlane;whiteSpace=wrap;html=1;startSize=23;" parent="1" vertex="1">
          <mxGeometry x="390" y="235" width="160" height="95" as="geometry" />
        </mxCell>
        <mxCell id="Wj8mXEGhw6E6jay1LkoU-19" value="flatBedRaise()&lt;div&gt;flatBedLower()&lt;/div&gt;" style="text;html=1;align=center;verticalAlign=middle;resizable=0;points=[];autosize=1;strokeColor=none;fillColor=none;" parent="-qv5VdQHlMRKxFQB7tNi-17" vertex="1">
          <mxGeometry y="20" width="100" height="40" as="geometry" />
        </mxCell>
        <mxCell id="-qv5VdQHlMRKxFQB7tNi-30" style="edgeStyle=orthogonalEdgeStyle;rounded=0;orthogonalLoop=1;jettySize=auto;html=1;exitX=0.25;exitY=0;exitDx=0;exitDy=0;endArrow=block;endFill=0;" parent="1" source="-qv5VdQHlMRKxFQB7tNi-19" edge="1">
          <mxGeometry relative="1" as="geometry">
            <mxPoint x="440" y="20" as="targetPoint" />
          </mxGeometry>
        </mxCell>
        <mxCell id="-qv5VdQHlMRKxFQB7tNi-19" value="Truck" style="swimlane;whiteSpace=wrap;html=1;" parent="1" vertex="1">
          <mxGeometry x="560" y="80" width="150" height="80" as="geometry" />
        </mxCell>
        <mxCell id="-qv5VdQHlMRKxFQB7tNi-56" style="edgeStyle=orthogonalEdgeStyle;rounded=0;orthogonalLoop=1;jettySize=auto;html=1;exitX=0;exitY=0.75;exitDx=0;exitDy=0;entryX=0.25;entryY=0;entryDx=0;entryDy=0;dashed=1;endArrow=open;endFill=0;" parent="1" source="-qv5VdQHlMRKxFQB7tNi-20" target="-qv5VdQHlMRKxFQB7tNi-4" edge="1">
          <mxGeometry relative="1" as="geometry" />
        </mxCell>
        <mxCell id="Wj8mXEGhw6E6jay1LkoU-12" style="edgeStyle=orthogonalEdgeStyle;rounded=0;orthogonalLoop=1;jettySize=auto;html=1;exitX=1;exitY=0.25;exitDx=0;exitDy=0;endArrow=open;endFill=0;dashed=1;" parent="1" source="-qv5VdQHlMRKxFQB7tNi-20" edge="1">
          <mxGeometry relative="1" as="geometry">
            <mxPoint x="890" y="-400" as="targetPoint" />
          </mxGeometry>
        </mxCell>
        <mxCell id="-qv5VdQHlMRKxFQB7tNi-20" value="VehichleView" style="swimlane;whiteSpace=wrap;html=1;" parent="1" vertex="1">
          <mxGeometry x="330" y="-450" width="150" height="130" as="geometry" />
        </mxCell>
        <mxCell id="Wj8mXEGhw6E6jay1LkoU-14" value="#vehichleController : VehichleColtroller&lt;div&gt;#drawPanel : DrawPanel&amp;nbsp;&lt;/div&gt;&lt;div&gt;#x : int&lt;/div&gt;&lt;div&gt;#y: int&lt;/div&gt;" style="rounded=0;whiteSpace=wrap;html=1;" parent="-qv5VdQHlMRKxFQB7tNi-20" vertex="1">
          <mxGeometry y="20" width="150" height="90" as="geometry" />
        </mxCell>
        <mxCell id="-qv5VdQHlMRKxFQB7tNi-32" style="edgeStyle=orthogonalEdgeStyle;rounded=0;orthogonalLoop=1;jettySize=auto;html=1;exitX=0.25;exitY=0;exitDx=0;exitDy=0;entryX=0.75;entryY=1;entryDx=0;entryDy=0;endArrow=block;endFill=0;" parent="1" source="-qv5VdQHlMRKxFQB7tNi-21" target="-qv5VdQHlMRKxFQB7tNi-5" edge="1">
          <mxGeometry relative="1" as="geometry" />
        </mxCell>
        <mxCell id="-qv5VdQHlMRKxFQB7tNi-21" value="Volvo240" style="swimlane;whiteSpace=wrap;html=1;" parent="1" vertex="1">
          <mxGeometry x="230" y="235" width="150" height="95" as="geometry" />
        </mxCell>
        <mxCell id="Wj8mXEGhw6E6jay1LkoU-18" value="speedFactor()" style="text;html=1;align=center;verticalAlign=middle;resizable=0;points=[];autosize=1;strokeColor=none;fillColor=none;" parent="-qv5VdQHlMRKxFQB7tNi-21" vertex="1">
          <mxGeometry x="10" y="32.5" width="100" height="30" as="geometry" />
        </mxCell>
        <mxCell id="-qv5VdQHlMRKxFQB7tNi-37" style="edgeStyle=orthogonalEdgeStyle;rounded=0;orthogonalLoop=1;jettySize=auto;html=1;exitX=0;exitY=0.5;exitDx=0;exitDy=0;entryX=1;entryY=0.5;entryDx=0;entryDy=0;endArrow=open;endFill=0;dashed=1;" parent="1" source="-qv5VdQHlMRKxFQB7tNi-22" target="-qv5VdQHlMRKxFQB7tNi-14" edge="1">
          <mxGeometry relative="1" as="geometry" />
        </mxCell>
        <mxCell id="-qv5VdQHlMRKxFQB7tNi-22" value="Workshop" style="swimlane;whiteSpace=wrap;html=1;" parent="1" vertex="1">
          <mxGeometry x="677" y="-150" width="150" height="150" as="geometry" />
        </mxCell>
        <mxCell id="Wj8mXEGhw6E6jay1LkoU-10" value="VehichleEntry()&lt;div&gt;GetCoordinates()&lt;/div&gt;" style="text;html=1;align=center;verticalAlign=middle;resizable=0;points=[];autosize=1;strokeColor=none;fillColor=none;" parent="-qv5VdQHlMRKxFQB7tNi-22" vertex="1">
          <mxGeometry y="75" width="120" height="40" as="geometry" />
        </mxCell>
        <mxCell id="Wj8mXEGhw6E6jay1LkoU-11" value="&lt;font style=&quot;font-size: 10px;&quot;&gt;#vehichlesInRepair : List&amp;lt;T extends MotorVehichle&amp;gt;&lt;/font&gt;&lt;div&gt;&lt;font style=&quot;font-size: 10px;&quot;&gt;#xAndY : Point2D.Double&lt;/font&gt;&lt;/div&gt;" style="rounded=0;whiteSpace=wrap;html=1;" parent="-qv5VdQHlMRKxFQB7tNi-22" vertex="1">
          <mxGeometry y="20" width="150" height="40" as="geometry" />
        </mxCell>
        <mxCell id="-qv5VdQHlMRKxFQB7tNi-34" style="edgeStyle=orthogonalEdgeStyle;rounded=0;orthogonalLoop=1;jettySize=auto;html=1;exitX=0.25;exitY=0;exitDx=0;exitDy=0;endArrow=block;endFill=0;" parent="1" source="-qv5VdQHlMRKxFQB7tNi-24" edge="1">
          <mxGeometry relative="1" as="geometry">
            <mxPoint x="680" y="160" as="targetPoint" />
          </mxGeometry>
        </mxCell>
        <mxCell id="Wj8mXEGhw6E6jay1LkoU-20" style="edgeStyle=orthogonalEdgeStyle;rounded=0;orthogonalLoop=1;jettySize=auto;html=1;exitX=0.75;exitY=0;exitDx=0;exitDy=0;entryX=1;entryY=0.5;entryDx=0;entryDy=0;endArrow=open;endFill=0;" parent="1" source="-qv5VdQHlMRKxFQB7tNi-24" target="-qv5VdQHlMRKxFQB7tNi-5" edge="1">
          <mxGeometry relative="1" as="geometry">
            <Array as="points">
              <mxPoint x="832" y="190" />
              <mxPoint x="280" y="190" />
            </Array>
          </mxGeometry>
        </mxCell>
        <mxCell id="-qv5VdQHlMRKxFQB7tNi-24" value="CarTransporter" style="swimlane;whiteSpace=wrap;html=1;startSize=23;" parent="1" vertex="1">
          <mxGeometry x="720" y="235" width="150" height="80" as="geometry" />
        </mxCell>
        <mxCell id="-qv5VdQHlMRKxFQB7tNi-38" style="edgeStyle=orthogonalEdgeStyle;rounded=0;orthogonalLoop=1;jettySize=auto;html=1;exitX=1;exitY=0.5;exitDx=0;exitDy=0;endArrow=open;endFill=0;dashed=1;" parent="1" source="-qv5VdQHlMRKxFQB7tNi-4" edge="1">
          <mxGeometry relative="1" as="geometry">
            <mxPoint x="350" y="-20" as="targetPoint" />
            <Array as="points">
              <mxPoint x="190" y="-295" />
              <mxPoint x="190" y="-20" />
            </Array>
          </mxGeometry>
        </mxCell>
        <mxCell id="-qv5VdQHlMRKxFQB7tNi-44" style="edgeStyle=orthogonalEdgeStyle;rounded=0;orthogonalLoop=1;jettySize=auto;html=1;exitX=0.25;exitY=1;exitDx=0;exitDy=0;entryX=0.333;entryY=0;entryDx=0;entryDy=0;entryPerimeter=0;endArrow=open;endFill=0;dashed=1;" parent="1" source="-qv5VdQHlMRKxFQB7tNi-4" target="-qv5VdQHlMRKxFQB7tNi-16" edge="1">
          <mxGeometry relative="1" as="geometry" />
        </mxCell>
        <mxCell id="-qv5VdQHlMRKxFQB7tNi-46" style="edgeStyle=orthogonalEdgeStyle;rounded=0;orthogonalLoop=1;jettySize=auto;html=1;exitX=1;exitY=0.25;exitDx=0;exitDy=0;entryX=0.169;entryY=0.008;entryDx=0;entryDy=0;entryPerimeter=0;endArrow=open;endFill=0;dashed=1;" parent="1" source="-qv5VdQHlMRKxFQB7tNi-4" target="-qv5VdQHlMRKxFQB7tNi-17" edge="1">
          <mxGeometry relative="1" as="geometry">
            <Array as="points">
              <mxPoint x="-60" y="-280" />
              <mxPoint x="70" y="-280" />
              <mxPoint x="70" y="20" />
              <mxPoint x="417" y="20" />
            </Array>
          </mxGeometry>
        </mxCell>
        <mxCell id="-qv5VdQHlMRKxFQB7tNi-49" style="edgeStyle=orthogonalEdgeStyle;rounded=0;orthogonalLoop=1;jettySize=auto;html=1;exitX=0;exitY=0.5;exitDx=0;exitDy=0;entryX=0.462;entryY=-0.002;entryDx=0;entryDy=0;entryPerimeter=0;endArrow=open;endFill=0;dashed=1;" parent="1" source="-qv5VdQHlMRKxFQB7tNi-2" target="-qv5VdQHlMRKxFQB7tNi-17" edge="1">
          <mxGeometry relative="1" as="geometry">
            <Array as="points">
              <mxPoint x="860" y="-375" />
              <mxPoint x="860" y="210" />
              <mxPoint x="464" y="210" />
            </Array>
          </mxGeometry>
        </mxCell>
        <mxCell id="-qv5VdQHlMRKxFQB7tNi-51" style="edgeStyle=orthogonalEdgeStyle;rounded=0;orthogonalLoop=1;jettySize=auto;html=1;exitX=0.75;exitY=1;exitDx=0;exitDy=0;entryX=0.683;entryY=0.027;entryDx=0;entryDy=0;entryPerimeter=0;endArrow=open;endFill=0;dashed=1;" parent="1" source="-qv5VdQHlMRKxFQB7tNi-2" target="-qv5VdQHlMRKxFQB7tNi-21" edge="1">
          <mxGeometry relative="1" as="geometry">
            <Array as="points">
              <mxPoint x="930" y="-330" />
              <mxPoint x="930" y="60" />
              <mxPoint x="333" y="60" />
            </Array>
          </mxGeometry>
        </mxCell>
      </root>
    </mxGraphModel>
  </diagram>
</mxfile>
